<?xml version="1.0" encoding="iso-8859-1"?>
<!-- Generator: Adobe Illustrator 19.0.0, SVG Export Plug-In . SVG Version: 6.00 Build 0)  -->
<svg version="1.1" id="Layer_1" xmlns="http://www.w3.org/2000/svg" xmlns:xlink="http://www.w3.org/1999/xlink" x="0px" y="0px"
	 viewBox="0 0 321.877 321.877" style="enable-background:new 0 0 321.877 321.877;" xml:space="preserve">
<g id="XMLID_337_">
	<path id="XMLID_338_" d="M45.743,250.68v-69.667h61.944c1.381,0,2.5-1.119,2.5-2.5v-33.021c0-1.381-1.119-2.5-2.5-2.5H45.743
		v-36.01h66.474c1.381,0,2.5-1.119,2.5-2.5V71.197c0-1.381-1.119-2.5-2.5-2.5H2.5c-1.381,0-2.5,1.119-2.5,2.5V250.68
		c0,1.381,1.119,2.5,2.5,2.5h40.743C44.624,253.18,45.743,252.061,45.743,250.68z"/>
	<path id="XMLID_340_" d="M281.824,251.413l39.942-130.219c0.233-0.758,0.092-1.582-0.379-2.219
		c-0.472-0.638-1.218-1.014-2.011-1.014h-39.678c-1.177,0-2.194,0.821-2.443,1.971l-11.193,51.708
		c-1.86,9.469-3.889,20.197-5.62,31.381c-2.189-10.563-4.66-21.017-7.077-31.242l-13.05-51.928
		c-0.279-1.111-1.278-1.891-2.425-1.891h-31.955c-1.14,0-2.135,0.771-2.42,1.874l-13.852,53.544
		c-2.341,9.363-4.907,19.625-7.161,30.237c-1.85-11.289-3.862-21.843-5.536-30.376l-10.385-53.258
		c-0.23-1.174-1.258-2.021-2.454-2.021h-41.276c-0.786,0-1.527,0.37-1.999,0.999c-0.473,0.628-0.621,1.443-0.401,2.198
		l37.814,130.219c0.31,1.068,1.288,1.803,2.4,1.803h38.081c1.117,0,2.099-0.741,2.404-1.815l13.051-45.81
		c2.642-9.352,4.692-18.136,6.456-27.792c1.85,9.94,3.729,18.552,6.031,27.758l12.25,45.804c0.292,1.093,1.283,1.854,2.415,1.854
		h38.081C280.533,253.18,281.503,252.463,281.824,251.413z"/>
</g>
<g>
</g>
<g>
</g>
<g>
</g>
<g>
</g>
<g>
</g>
<g>
</g>
<g>
</g>
<g>
</g>
<g>
</g>
<g>
</g>
<g>
</g>
<g>
</g>
<g>
</g>
<g>
</g>
<g>
</g>
</svg>
