<?xml version="1.0" encoding="iso-8859-1"?>
<!-- Generator: Adobe Illustrator 19.0.0, SVG Export Plug-In . SVG Version: 6.00 Build 0)  -->
<svg version="1.1" id="Layer_1" xmlns="http://www.w3.org/2000/svg" xmlns:xlink="http://www.w3.org/1999/xlink" x="0px" y="0px"
	 viewBox="0 0 219.615 219.615" style="enable-background:new 0 0 219.615 219.615;" xml:space="preserve">
<g id="XMLID_341_">
	<path id="XMLID_348_" d="M114.612,202.049c1.381,0,2.5-1.119,2.5-2.5v-34.086c0-1.381-1.119-2.5-2.5-2.5H45.743V20.066
		c0-1.381-1.119-2.5-2.5-2.5H2.5c-1.381,0-2.5,1.119-2.5,2.5v179.483c0,1.381,1.119,2.5,2.5,2.5H114.612z"/>
	<path id="XMLID_350_" d="M137.227,202.049h40.477c1.381,0,2.5-1.119,2.5-2.5v-66.041c0-3.101,0.267-6.143,0.744-8.536
		c2.468-11.599,11.906-18.523,25.25-18.523c4.261,0,7.55,0.492,10.469,1.024c0.732,0.135,1.48-0.065,2.05-0.54
		c0.569-0.475,0.898-1.178,0.898-1.919v-38.08c0-1.208-0.864-2.244-2.053-2.459c-3.148-0.573-5.216-0.573-8.969-0.573
		c-11.813,0-26.042,6.602-34.17,21.142l-0.881-15.851c-0.073-1.325-1.169-2.361-2.496-2.361h-34.886c-0.684,0-1.338,0.28-1.81,0.775
		c-0.472,0.495-0.72,1.161-0.688,1.844c0.561,11.779,1.063,23.912,1.063,42.754v87.346
		C134.727,200.93,135.847,202.049,137.227,202.049z"/>
</g>
<g>
</g>
<g>
</g>
<g>
</g>
<g>
</g>
<g>
</g>
<g>
</g>
<g>
</g>
<g>
</g>
<g>
</g>
<g>
</g>
<g>
</g>
<g>
</g>
<g>
</g>
<g>
</g>
<g>
</g>
</svg>
