<?xml version="1.0" encoding="iso-8859-1"?>
<!-- Generator: Adobe Illustrator 19.0.0, SVG Export Plug-In . SVG Version: 6.00 Build 0)  -->
<svg version="1.1" id="Layer_1" xmlns="http://www.w3.org/2000/svg" xmlns:xlink="http://www.w3.org/1999/xlink" x="0px" y="0px"
	 viewBox="0 0 305 305" style="enable-background:new 0 0 305 305;" xml:space="preserve">
<g id="XMLID_231_">
	<path id="XMLID_232_" d="M152.248,0C110.826,0,73.791,15.302,45.143,44.256C16.032,73.824,0,112.266,0,152.5
		c0,40.978,15.494,78.094,44.804,107.329C73.833,288.958,111.99,305,152.248,305c40.679,0,79.463-16.175,109.205-45.543
		C289.941,231.415,305,194.43,305,152.5c0-41.796-15.214-79.075-43.996-107.806C231.714,15.455,194.106,0,152.248,0z
		 M152.674,272.476c-31.746,0-61.812-12.57-84.656-35.394c-23.139-23.126-35.881-53.165-35.881-84.581
		c0-31.503,12.748-61.831,35.895-85.396c22.554-22.909,51.823-35.018,84.643-35.018c32.663,0,62.219,12.266,85.473,35.471
		c22.67,22.609,34.652,51.986,34.652,84.954c0,33.027-11.813,62.106-34.164,84.093C215.106,259.736,184.578,272.476,152.674,272.476
		z"/>
	<path id="XMLID_236_" d="M152.435,173.38l-18.711-9.414c-0.619-0.311-1.338-0.351-1.987-0.113c-0.649,0.239-1.171,0.737-1.44,1.374
		c-3.37,7.988-8.196,11.396-16.136,11.396c-15.896,0-17.612-16.871-17.612-24.124c0-16,5.926-24.112,17.612-24.112
		c1.567,0,9.629,0.515,14.385,10.684c0.289,0.618,0.818,1.091,1.464,1.309c0.646,0.219,1.355,0.163,1.958-0.152l19.953-10.425
		c0.596-0.311,1.041-0.849,1.235-1.492c0.195-0.643,0.122-1.337-0.201-1.927c-8.209-14.954-22.708-22.858-41.931-22.858
		c-27.342,0-46.437,20.138-46.437,48.973c0,29.796,18.543,49.049,47.239,49.049c17.276,0,32.85-9.233,41.657-24.698
		c0.34-0.596,0.42-1.304,0.222-1.96C153.506,174.234,153.047,173.688,152.435,173.38z"/>
	<path id="XMLID_237_" d="M240.344,174.893c-0.196-0.657-0.655-1.204-1.268-1.514l-18.65-9.423
		c-0.619-0.313-1.342-0.354-1.993-0.114c-0.652,0.241-1.174,0.742-1.441,1.383c-3.331,7.99-8.165,11.398-16.165,11.398
		c-15.953,0-17.676-16.871-17.676-24.124c0-15.967,5.947-24.064,17.676-24.064c1.571,0,9.649,0.513,14.398,10.638
		c0.29,0.617,0.818,1.089,1.464,1.307c0.647,0.218,1.353,0.163,1.956-0.152l19.949-10.412c0.596-0.311,1.041-0.848,1.236-1.49
		c0.194-0.643,0.123-1.336-0.198-1.925c-8.294-15.18-22.424-22.878-41.995-22.878c-27.341,0-46.436,20.14-46.436,48.976
		c0,29.796,18.566,49.049,47.3,49.049c17.196,0,32.754-9.232,41.618-24.695C240.459,176.259,240.541,175.549,240.344,174.893z"/>
</g>
<g>
</g>
<g>
</g>
<g>
</g>
<g>
</g>
<g>
</g>
<g>
</g>
<g>
</g>
<g>
</g>
<g>
</g>
<g>
</g>
<g>
</g>
<g>
</g>
<g>
</g>
<g>
</g>
<g>
</g>
</svg>
