<?xml version="1.0" encoding="iso-8859-1"?>
<!-- Generator: Adobe Illustrator 19.0.0, SVG Export Plug-In . SVG Version: 6.00 Build 0)  -->
<svg version="1.1" id="Layer_1" xmlns="http://www.w3.org/2000/svg" xmlns:xlink="http://www.w3.org/1999/xlink" x="0px" y="0px"
	 viewBox="0 0 305 305" style="enable-background:new 0 0 305 305;" xml:space="preserve">
<g id="XMLID_2_">
	<path id="XMLID_4_" d="M201.121,189.77h94.395c0.893,0,1.717-0.476,2.164-1.247c0.446-0.773,0.448-1.725,0.003-2.499
		L201.864,19.326c-0.445-0.775-1.272-1.254-2.167-1.254h-94.395c-0.893,0-1.717,0.476-2.164,1.248
		c-0.446,0.773-0.448,1.724-0.003,2.498l95.818,166.698C199.399,189.292,200.227,189.77,201.121,189.77z"/>
	<path id="XMLID_5_" d="M143.538,123.471L94.917,40.13c-0.448-0.769-1.271-1.24-2.159-1.24c-0.006,0-0.012,0-0.018,0
		c-0.895,0.006-1.719,0.491-2.159,1.27L0.323,199.857c-0.432,0.764-0.431,1.698,0.001,2.462l47.196,83.341
		c0.442,0.781,1.271,1.266,2.168,1.268c0.003,0,0.005,0,0.008,0c0.896,0,1.723-0.478,2.168-1.255l91.683-159.697
		C143.992,125.199,143.989,124.244,143.538,123.471z"/>
	<path id="XMLID_6_" d="M302.5,198.587h-181.94c-0.9,0-1.73,0.484-2.175,1.267L71.12,283.195c-0.439,0.774-0.434,1.723,0.015,2.492
		c0.447,0.769,1.271,1.242,2.16,1.242h181.939c0.9,0,1.73-0.484,2.175-1.267l47.266-83.341c0.438-0.774,0.434-1.723-0.015-2.492
		C304.213,199.06,303.39,198.587,302.5,198.587z"/>
</g>
<g>
</g>
<g>
</g>
<g>
</g>
<g>
</g>
<g>
</g>
<g>
</g>
<g>
</g>
<g>
</g>
<g>
</g>
<g>
</g>
<g>
</g>
<g>
</g>
<g>
</g>
<g>
</g>
<g>
</g>
</svg>
