<?xml version="1.0" encoding="iso-8859-1"?>
<!-- Generator: Adobe Illustrator 19.0.0, SVG Export Plug-In . SVG Version: 6.00 Build 0)  -->
<svg version="1.1" id="Layer_1" xmlns="http://www.w3.org/2000/svg" xmlns:xlink="http://www.w3.org/1999/xlink" x="0px" y="0px"
	 viewBox="0 0 305 305" style="enable-background:new 0 0 305 305;" xml:space="preserve">
<g id="XMLID_25_">
	<path id="XMLID_26_" d="M152.499,18.751c-5.135,0-10.298,0.277-15.413,0.825c1.72-2.81,2.343-5.945,1.694-8.993
		C137.435,4.253,130.987,0,122.734,0c-1.686,0-3.405,0.183-5.115,0.544c-4.786,1.018-8.987,3.317-11.827,6.475
		c-3.038,3.378-4.253,7.393-3.421,11.304c0.653,3.079,2.544,5.715,5.325,7.587c-27.153,8.968-51.479,26.251-68.953,49.1
		C19.531,100.13,9.375,130.169,9.375,161.876C9.375,240.794,73.58,305,152.499,305c78.919,0,143.126-64.206,143.126-143.124
		C295.625,82.956,231.418,18.751,152.499,18.751z M122.734,9.686c3.727,0,6.269,1.479,6.572,2.909
		c0.169,0.798-0.287,1.831-1.202,2.827c-2.325-1.112-4.997-1.441-7.56-0.896c-2.534,0.539-4.822,1.909-6.507,3.857
		c-1.211-0.539-2.025-1.29-2.192-2.075c-0.19-0.895,0.396-2.096,1.567-3.211c1.506-1.435,3.774-2.556,6.22-3.076
		C120.678,9.799,121.722,9.686,122.734,9.686z M183.525,261.33l-11.414-18.512c-0.553-0.898-1.613-1.354-2.646-1.133
		c-1.035,0.22-1.818,1.065-1.959,2.112l-2.891,21.518c-4.021,0.464-8.088,0.7-12.116,0.7c-27.05,0-52.524-10.243-71.996-28.896
		c0.207-0.082,0.406-0.193,0.591-0.334l56.476-42.923c3.778,1.761,7.869,2.854,11.987,3.204l14.33,30.075
		c0.498,1.045,1.65,1.611,2.777,1.37c1.131-0.24,1.949-1.225,1.979-2.381l0.861-33.291c3.154-1.726,5.998-3.912,8.486-6.522
		l16.918,5.997c1.092,0.386,2.303-0.025,2.932-0.995c0.631-0.97,0.514-2.245-0.283-3.083l-12.359-13.014
		c1.373-3.34,2.215-6.829,2.506-10.408l30.061-14.328c1.045-0.497,1.611-1.645,1.371-2.777c-0.24-1.131-1.225-1.949-2.381-1.979
		l-30.738-0.794l41.396-54.469c0.139-0.184,0.25-0.382,0.332-0.587c11.15,11.653,19.479,25.742,24.213,40.97l-18.512,11.414
		c-0.898,0.554-1.354,1.614-1.133,2.648c0.219,1.033,1.064,1.817,2.111,1.957l21.516,2.891c0.467,4.036,0.701,8.103,0.701,12.116
		c0,27.814-10.832,53.966-30.504,73.637C214.181,247.469,199.482,256.368,183.525,261.33z M72.688,178.84
		c-0.22-1.034-1.065-1.817-2.112-1.958l-21.516-2.894c-0.466-4.036-0.701-8.102-0.701-12.113c0-27.819,10.833-53.971,30.504-73.639
		c11.956-11.955,26.655-20.856,42.61-25.821l11.415,18.515c0.554,0.899,1.617,1.355,2.647,1.133c1.034-0.22,1.817-1.066,1.958-2.112
		l2.892-21.517c4.018-0.465,8.084-0.7,12.114-0.7c27.051,0,52.526,10.243,71.997,28.896c-0.205,0.082-0.402,0.193-0.588,0.333
		l-56.477,42.923c-3.775-1.76-7.865-2.854-11.986-3.204l-14.333-30.076c-0.498-1.044-1.651-1.611-2.776-1.37
		c-1.131,0.24-1.95,1.225-1.98,2.381l-0.86,33.293c-3.153,1.725-5.998,3.91-8.487,6.52l-16.919-5.997
		c-1.091-0.386-2.303,0.026-2.932,0.995c-0.63,0.97-0.513,2.245,0.284,3.083l12.359,13.015c-1.371,3.341-2.211,6.83-2.504,10.409
		l-30.063,14.326c-1.044,0.498-1.61,1.646-1.37,2.777c0.24,1.131,1.225,1.949,2.381,1.979l30.741,0.794l-41.396,54.469
		c-0.141,0.185-0.252,0.384-0.334,0.59c-11.149-11.647-19.477-25.737-24.214-40.973l18.511-11.412
		C72.453,180.933,72.907,179.873,72.688,178.84z M165.877,183.73c-2.482,1.521-5.191,2.601-8.051,3.209
		c-2.77,0.59-5.608,0.721-8.47,0.375c-0.112-0.023-0.226-0.039-0.339-0.046c-0.746-0.102-1.49-0.238-2.229-0.409l17.169-13.052
		c0.182-0.137,0.342-0.297,0.479-0.478l13.045-17.166c0.029,0.127,0.059,0.255,0.086,0.383
		C179.816,167.151,175.121,178.075,165.877,183.73z M147.17,136.81c1.776-0.377,3.579-0.567,5.358-0.567
		c1.045,0,2.108,0.067,3.161,0.199c0.094,0.018,0.189,0.03,0.283,0.037c0.752,0.103,1.5,0.24,2.242,0.411l-17.172,13.05
		c-0.18,0.137-0.341,0.297-0.478,0.478l-13.047,17.168c-0.029-0.128-0.058-0.256-0.085-0.384
		C124.498,153.381,133.353,139.748,147.17,136.81z"/>
</g>
<g>
</g>
<g>
</g>
<g>
</g>
<g>
</g>
<g>
</g>
<g>
</g>
<g>
</g>
<g>
</g>
<g>
</g>
<g>
</g>
<g>
</g>
<g>
</g>
<g>
</g>
<g>
</g>
<g>
</g>
</svg>
