<svg xmlns="http://www.w3.org/2000/svg" xmlns:xlink="http://www.w3.org/1999/xlink" viewBox="0 0 1002.01 468"><defs><linearGradient id="linear-gradient" x1="-2460" y1="560" x2="-1472" y2="560" gradientTransform="translate(2460 -326)" gradientUnits="userSpaceOnUse"><stop offset="0" stop-color="#020202" stop-opacity="0"/><stop offset="0.87" stop-color="#010101" stop-opacity="0.68"/><stop offset="1"/></linearGradient></defs><title>darkgradient_BG_clear2</title><g id="Layer_2" data-name="Layer 2"><g id="Layer_1-2" data-name="Layer 1"><polygon points="587.98 111.1 556.51 92.85 525.04 111.1 587.98 111.1" fill="none" stroke="#414042" stroke-miterlimit="10" stroke-width="0.5"/><polygon points="556.66 56.07 556.65 92.45 588.22 110.52 556.66 56.07" fill="none" stroke="#414042" stroke-miterlimit="10" stroke-width="0.5"/><polygon points="524.63 110.4 556.24 92.4 556.32 56.02 524.63 110.4" fill="none" stroke="#414042" stroke-miterlimit="10" stroke-width="0.5"/><polygon points="657.23 111.1 625.76 92.85 594.3 111.1 657.23 111.1" fill="none" stroke="#414042" stroke-miterlimit="10" stroke-width="0.5"/><polygon points="625.92 56.07 625.9 92.45 657.48 110.52 625.92 56.07" fill="none" stroke="#414042" stroke-miterlimit="10" stroke-width="0.5"/><polygon points="593.88 110.4 625.5 92.4 625.58 56.02 593.88 110.4" fill="none" stroke="#414042" stroke-miterlimit="10" stroke-width="0.5"/><polygon points="590.63 110.79 590.32 74.41 558.6 56.62 590.63 110.79" fill="none" stroke="#414042" stroke-miterlimit="10" stroke-width="0.5"/><polygon points="622.06 55.82 590.74 74.33 591.25 110.7 622.06 55.82" fill="none" stroke="#414042" stroke-miterlimit="10" stroke-width="0.5"/><polygon points="558.99 55.9 590.58 73.95 621.93 55.5 558.99 55.9" fill="none" stroke="#414042" stroke-miterlimit="10" stroke-width="0.5"/><polygon points="659.89 110.79 659.58 74.41 627.85 56.62 659.89 110.79" fill="none" stroke="#414042" stroke-miterlimit="10" stroke-width="0.5"/><polygon points="691.32 55.82 660 74.33 660.51 110.7 691.32 55.82" fill="none" stroke="#414042" stroke-miterlimit="10" stroke-width="0.5"/><polygon points="628.25 55.9 659.83 73.95 691.18 55.5 628.25 55.9" fill="none" stroke="#414042" stroke-miterlimit="10" stroke-width="0.5"/><polygon points="725.49 111.1 694.02 92.85 662.55 111.1 725.49 111.1" fill="none" stroke="#414042" stroke-miterlimit="10" stroke-width="0.5"/><polygon points="694.18 56.07 694.16 92.45 725.73 110.52 694.18 56.07" fill="none" stroke="#414042" stroke-miterlimit="10" stroke-width="0.5"/><polygon points="662.14 110.4 693.76 92.4 693.83 56.02 662.14 110.4" fill="none" stroke="#414042" stroke-miterlimit="10" stroke-width="0.5"/><polygon points="728.15 110.79 727.84 74.41 696.11 56.62 728.15 110.79" fill="none" stroke="#414042" stroke-miterlimit="10" stroke-width="0.5"/><polygon points="759.58 55.82 728.26 74.33 728.77 110.7 759.58 55.82" fill="none" stroke="#414042" stroke-miterlimit="10" stroke-width="0.5"/><polygon points="696.51 55.9 728.09 73.95 759.44 55.5 696.51 55.9" fill="none" stroke="#414042" stroke-miterlimit="10" stroke-width="0.5"/><polygon points="793.75 111.1 762.28 92.85 730.81 111.1 793.75 111.1" fill="none" stroke="#414042" stroke-miterlimit="10" stroke-width="0.5"/><polygon points="762.43 56.07 762.42 92.45 793.99 110.52 762.43 56.07" fill="none" stroke="#414042" stroke-miterlimit="10" stroke-width="0.5"/><polygon points="730.4 110.4 762.02 92.4 762.09 56.02 730.4 110.4" fill="none" stroke="#414042" stroke-miterlimit="10" stroke-width="0.5"/><polygon points="796.41 110.79 796.1 74.41 764.37 56.62 796.41 110.79" fill="none" stroke="#414042" stroke-miterlimit="10" stroke-width="0.5"/><polygon points="827.83 55.82 796.51 74.33 797.03 110.7 827.83 55.82" fill="none" stroke="#414042" stroke-miterlimit="10" stroke-width="0.5"/><polygon points="764.76 55.9 796.35 73.95 827.7 55.5 764.76 55.9" fill="none" stroke="#414042" stroke-miterlimit="10" stroke-width="0.5"/><polygon points="862.01 111.1 830.54 92.85 799.07 111.1 862.01 111.1" fill="none" stroke="#414042" stroke-miterlimit="10" stroke-width="0.5"/><polygon points="830.69 56.07 830.68 92.45 862.25 110.52 830.69 56.07" fill="none" stroke="#414042" stroke-miterlimit="10" stroke-width="0.5"/><polygon points="798.66 110.4 830.27 92.4 830.35 56.02 798.66 110.4" fill="none" stroke="#414042" stroke-miterlimit="10" stroke-width="0.5"/><polygon points="864.66 110.79 864.36 74.41 832.63 56.62 864.66 110.79" fill="none" stroke="#414042" stroke-miterlimit="10" stroke-width="0.5"/><polygon points="896.09 55.82 864.77 74.33 865.28 110.7 896.09 55.82" fill="none" stroke="#414042" stroke-miterlimit="10" stroke-width="0.5"/><polygon points="833.02 55.9 864.61 73.95 895.96 55.5 833.02 55.9" fill="none" stroke="#414042" stroke-miterlimit="10" stroke-width="0.5"/><polygon points="930.27 111.1 898.8 92.85 867.33 111.1 930.27 111.1" fill="none" stroke="#414042" stroke-miterlimit="10" stroke-width="0.5"/><polygon points="898.95 56.07 898.94 92.45 930.51 110.52 898.95 56.07" fill="none" stroke="#414042" stroke-miterlimit="10" stroke-width="0.5"/><polygon points="866.92 110.4 898.53 92.4 898.61 56.02 866.92 110.4" fill="none" stroke="#414042" stroke-miterlimit="10" stroke-width="0.5"/><polygon points="932.92 110.79 932.61 74.41 900.88 56.62 932.92 110.79" fill="none" stroke="#414042" stroke-miterlimit="10" stroke-width="0.5"/><polygon points="964.35 55.82 933.03 74.33 933.54 110.7 964.35 55.82" fill="none" stroke="#414042" stroke-miterlimit="10" stroke-width="0.5"/><polygon points="901.28 55.9 932.87 73.95 964.22 55.5 901.28 55.9" fill="none" stroke="#414042" stroke-miterlimit="10" stroke-width="0.5"/><polygon points="998.53 111.1 967.06 92.85 935.59 111.1 998.53 111.1" fill="none" stroke="#414042" stroke-miterlimit="10" stroke-width="0.5"/><polygon points="967.21 56.07 967.2 92.45 998.77 110.52 967.21 56.07" fill="none" stroke="#414042" stroke-miterlimit="10" stroke-width="0.5"/><polygon points="935.18 110.4 966.79 92.4 966.87 56.02 935.18 110.4" fill="none" stroke="#414042" stroke-miterlimit="10" stroke-width="0.5"/><polygon points="556.59 168.4 525.12 150.15 493.65 168.4 556.59 168.4" fill="none" stroke="#414042" stroke-miterlimit="10" stroke-width="0.5"/><polygon points="525.27 113.37 525.26 149.74 556.83 167.82 525.27 113.37" fill="none" stroke="#414042" stroke-miterlimit="10" stroke-width="0.5"/><polygon points="493.24 167.69 524.85 149.69 524.93 113.32 493.24 167.69" fill="none" stroke="#414042" stroke-miterlimit="10" stroke-width="0.5"/><polygon points="625.85 168.4 594.38 150.15 562.91 168.4 625.85 168.4" fill="none" stroke="#414042" stroke-miterlimit="10" stroke-width="0.5"/><polygon points="594.53 113.37 594.52 149.74 626.09 167.82 594.53 113.37" fill="none" stroke="#414042" stroke-miterlimit="10" stroke-width="0.5"/><polygon points="562.5 167.69 594.11 149.69 594.19 113.32 562.5 167.69" fill="none" stroke="#414042" stroke-miterlimit="10" stroke-width="0.5"/><polygon points="559.24 168.09 558.93 131.71 527.21 113.91 559.24 168.09" fill="none" stroke="#414042" stroke-miterlimit="10" stroke-width="0.5"/><polygon points="590.67 113.12 559.35 131.63 559.87 168 590.67 113.12" fill="none" stroke="#414042" stroke-miterlimit="10" stroke-width="0.5"/><polygon points="527.6 113.2 559.19 131.25 590.54 112.8 527.6 113.2" fill="none" stroke="#414042" stroke-miterlimit="10" stroke-width="0.5"/><polygon points="628.5 168.09 628.19 131.71 596.46 113.91 628.5 168.09" fill="none" stroke="#414042" stroke-miterlimit="10" stroke-width="0.5"/><polygon points="659.93 113.12 628.61 131.63 629.12 168 659.93 113.12" fill="none" stroke="#414042" stroke-miterlimit="10" stroke-width="0.5"/><polygon points="596.86 113.2 628.44 131.25 659.79 112.8 596.86 113.2" fill="none" stroke="#414042" stroke-miterlimit="10" stroke-width="0.5"/><polygon points="694.1 168.4 662.63 150.15 631.16 168.4 694.1 168.4" fill="none" stroke="#414042" stroke-miterlimit="10" stroke-width="0.5"/><polygon points="662.79 113.37 662.77 149.74 694.34 167.82 662.79 113.37" fill="none" stroke="#414042" stroke-miterlimit="10" stroke-width="0.5"/><polygon points="630.75 167.69 662.37 149.69 662.45 113.32 630.75 167.69" fill="none" stroke="#414042" stroke-miterlimit="10" stroke-width="0.5"/><polygon points="696.76 168.09 696.45 131.71 664.72 113.91 696.76 168.09" fill="none" stroke="#414042" stroke-miterlimit="10" stroke-width="0.5"/><polygon points="728.19 113.12 696.87 131.63 697.38 168 728.19 113.12" fill="none" stroke="#414042" stroke-miterlimit="10" stroke-width="0.5"/><polygon points="665.12 113.2 696.7 131.25 728.05 112.8 665.12 113.2" fill="none" stroke="#414042" stroke-miterlimit="10" stroke-width="0.5"/><polygon points="762.36 168.4 730.89 150.15 699.42 168.4 762.36 168.4" fill="none" stroke="#414042" stroke-miterlimit="10" stroke-width="0.5"/><polygon points="731.05 113.37 731.03 149.74 762.6 167.82 731.05 113.37" fill="none" stroke="#414042" stroke-miterlimit="10" stroke-width="0.5"/><polygon points="699.01 167.69 730.63 149.69 730.7 113.32 699.01 167.69" fill="none" stroke="#414042" stroke-miterlimit="10" stroke-width="0.5"/><polygon points="765.02 168.09 764.71 131.71 732.98 113.91 765.02 168.09" fill="none" stroke="#414042" stroke-miterlimit="10" stroke-width="0.5"/><polygon points="796.45 113.12 765.13 131.63 765.64 168 796.45 113.12" fill="none" stroke="#414042" stroke-miterlimit="10" stroke-width="0.5"/><polygon points="733.38 113.2 764.96 131.25 796.31 112.8 733.38 113.2" fill="none" stroke="#414042" stroke-miterlimit="10" stroke-width="0.5"/><polygon points="830.62 168.4 799.15 150.15 767.68 168.4 830.62 168.4" fill="none" stroke="#414042" stroke-miterlimit="10" stroke-width="0.5"/><polygon points="799.3 113.37 799.29 149.74 830.86 167.82 799.3 113.37" fill="none" stroke="#414042" stroke-miterlimit="10" stroke-width="0.5"/><polygon points="767.27 167.69 798.89 149.69 798.96 113.32 767.27 167.69" fill="none" stroke="#414042" stroke-miterlimit="10" stroke-width="0.5"/><polygon points="833.28 168.09 832.97 131.71 801.24 113.91 833.28 168.09" fill="none" stroke="#414042" stroke-miterlimit="10" stroke-width="0.5"/><polygon points="864.7 113.12 833.38 131.63 833.9 168 864.7 113.12" fill="none" stroke="#414042" stroke-miterlimit="10" stroke-width="0.5"/><polygon points="801.63 113.2 833.22 131.25 864.57 112.8 801.63 113.2" fill="none" stroke="#414042" stroke-miterlimit="10" stroke-width="0.5"/><polygon points="898.88 168.4 867.41 150.15 835.94 168.4 898.88 168.4" fill="none" stroke="#414042" stroke-miterlimit="10" stroke-width="0.5"/><polygon points="867.56 113.37 867.55 149.74 899.12 167.82 867.56 113.37" fill="none" stroke="#414042" stroke-miterlimit="10" stroke-width="0.5"/><polygon points="835.53 167.69 867.14 149.69 867.22 113.32 835.53 167.69" fill="none" stroke="#414042" stroke-miterlimit="10" stroke-width="0.5"/><polygon points="901.53 168.09 901.22 131.71 869.5 113.91 901.53 168.09" fill="none" stroke="#414042" stroke-miterlimit="10" stroke-width="0.5"/><polygon points="932.96 113.12 901.64 131.63 902.15 168 932.96 113.12" fill="none" stroke="#414042" stroke-miterlimit="10" stroke-width="0.5"/><polygon points="869.89 113.2 901.48 131.25 932.83 112.8 869.89 113.2" fill="none" stroke="#414042" stroke-miterlimit="10" stroke-width="0.5"/><polygon points="967.14 168.4 935.67 150.15 904.2 168.4 967.14 168.4" fill="none" stroke="#414042" stroke-miterlimit="10" stroke-width="0.5"/><polygon points="935.82 113.37 935.81 149.74 967.38 167.82 935.82 113.37" fill="none" stroke="#414042" stroke-miterlimit="10" stroke-width="0.5"/><polygon points="903.79 167.69 935.4 149.69 935.48 113.32 903.79 167.69" fill="none" stroke="#414042" stroke-miterlimit="10" stroke-width="0.5"/><polygon points="969.79 168.09 969.48 131.71 937.75 113.91 969.79 168.09" fill="none" stroke="#414042" stroke-miterlimit="10" stroke-width="0.5"/><polygon points="1001.22 113.12 969.9 131.63 970.41 168 1001.22 113.12" fill="none" stroke="#414042" stroke-miterlimit="10" stroke-width="0.5"/><polygon points="938.15 113.2 969.74 131.25 1001.09 112.8 938.15 113.2" fill="none" stroke="#414042" stroke-miterlimit="10" stroke-width="0.5"/><polygon points="522.71 225.2 491.24 206.95 459.77 225.2 522.71 225.2" fill="none" stroke="#414042" stroke-miterlimit="10" stroke-width="0.5"/><polygon points="491.39 170.16 491.38 206.54 522.95 224.62 491.39 170.16" fill="none" stroke="#414042" stroke-miterlimit="10" stroke-width="0.5"/><polygon points="459.36 224.49 490.97 206.49 491.05 170.12 459.36 224.49" fill="none" stroke="#414042" stroke-miterlimit="10" stroke-width="0.5"/><polygon points="591.96 225.2 560.5 206.95 529.03 225.2 591.96 225.2" fill="none" stroke="#414042" stroke-miterlimit="10" stroke-width="0.5"/><polygon points="560.65 170.16 560.64 206.54 592.21 224.62 560.65 170.16" fill="none" stroke="#414042" stroke-miterlimit="10" stroke-width="0.5"/><polygon points="528.62 224.49 560.23 206.49 560.31 170.12 528.62 224.49" fill="none" stroke="#414042" stroke-miterlimit="10" stroke-width="0.5"/><polygon points="525.36 224.89 525.05 188.51 493.33 170.71 525.36 224.89" fill="none" stroke="#414042" stroke-miterlimit="10" stroke-width="0.5"/><polygon points="556.79 169.92 525.47 188.42 525.99 224.8 556.79 169.92" fill="none" stroke="#414042" stroke-miterlimit="10" stroke-width="0.5"/><polygon points="493.72 170 525.31 188.05 556.66 169.6 493.72 170" fill="none" stroke="#414042" stroke-miterlimit="10" stroke-width="0.5"/><polygon points="594.62 224.89 594.31 188.51 562.58 170.71 594.62 224.89" fill="none" stroke="#414042" stroke-miterlimit="10" stroke-width="0.5"/><polygon points="626.05 169.92 594.73 188.42 595.24 224.8 626.05 169.92" fill="none" stroke="#414042" stroke-miterlimit="10" stroke-width="0.5"/><polygon points="562.98 170 594.56 188.05 625.91 169.6 562.98 170" fill="none" stroke="#414042" stroke-miterlimit="10" stroke-width="0.5"/><polygon points="660.22 225.2 628.75 206.95 597.28 225.2 660.22 225.2" fill="none" stroke="#414042" stroke-miterlimit="10" stroke-width="0.5"/><polygon points="628.91 170.16 628.89 206.54 660.46 224.62 628.91 170.16" fill="none" stroke="#414042" stroke-miterlimit="10" stroke-width="0.5"/><polygon points="596.87 224.49 628.49 206.49 628.57 170.12 596.87 224.49" fill="none" stroke="#414042" stroke-miterlimit="10" stroke-width="0.5"/><polygon points="662.88 224.89 662.57 188.51 630.84 170.71 662.88 224.89" fill="none" stroke="#414042" stroke-miterlimit="10" stroke-width="0.5"/><polygon points="694.31 169.92 662.99 188.42 663.5 224.8 694.31 169.92" fill="none" stroke="#414042" stroke-miterlimit="10" stroke-width="0.5"/><polygon points="631.24 170 662.82 188.05 694.17 169.6 631.24 170" fill="none" stroke="#414042" stroke-miterlimit="10" stroke-width="0.5"/><polygon points="728.48 225.2 697.01 206.95 665.54 225.2 728.48 225.2" fill="none" stroke="#414042" stroke-miterlimit="10" stroke-width="0.5"/><polygon points="697.17 170.16 697.15 206.54 728.72 224.62 697.17 170.16" fill="none" stroke="#414042" stroke-miterlimit="10" stroke-width="0.5"/><polygon points="665.13 224.49 696.75 206.49 696.82 170.12 665.13 224.49" fill="none" stroke="#414042" stroke-miterlimit="10" stroke-width="0.5"/><polygon points="731.14 224.89 730.83 188.51 699.1 170.71 731.14 224.89" fill="none" stroke="#414042" stroke-miterlimit="10" stroke-width="0.5"/><polygon points="762.57 169.92 731.25 188.42 731.76 224.8 762.57 169.92" fill="none" stroke="#414042" stroke-miterlimit="10" stroke-width="0.5"/><polygon points="699.5 170 731.08 188.05 762.43 169.6 699.5 170" fill="none" stroke="#414042" stroke-miterlimit="10" stroke-width="0.5"/><polygon points="796.74 225.2 765.27 206.95 733.8 225.2 796.74 225.2" fill="none" stroke="#414042" stroke-miterlimit="10" stroke-width="0.5"/><polygon points="765.42 170.16 765.41 206.54 796.98 224.62 765.42 170.16" fill="none" stroke="#414042" stroke-miterlimit="10" stroke-width="0.5"/><polygon points="733.39 224.49 765 206.49 765.08 170.12 733.39 224.49" fill="none" stroke="#414042" stroke-miterlimit="10" stroke-width="0.5"/><polygon points="799.39 224.89 799.09 188.51 767.36 170.71 799.39 224.89" fill="none" stroke="#414042" stroke-miterlimit="10" stroke-width="0.5"/><polygon points="830.82 169.92 799.5 188.42 800.02 224.8 830.82 169.92" fill="none" stroke="#414042" stroke-miterlimit="10" stroke-width="0.5"/><polygon points="767.75 170 799.34 188.05 830.69 169.6 767.75 170" fill="none" stroke="#414042" stroke-miterlimit="10" stroke-width="0.5"/><polygon points="865 225.2 833.53 206.95 802.06 225.2 865 225.2" fill="none" stroke="#414042" stroke-miterlimit="10" stroke-width="0.5"/><polygon points="833.68 170.16 833.67 206.54 865.24 224.62 833.68 170.16" fill="none" stroke="#414042" stroke-miterlimit="10" stroke-width="0.5"/><polygon points="801.65 224.49 833.26 206.49 833.34 170.12 801.65 224.49" fill="none" stroke="#414042" stroke-miterlimit="10" stroke-width="0.5"/><polygon points="867.65 224.89 867.34 188.51 835.62 170.71 867.65 224.89" fill="none" stroke="#414042" stroke-miterlimit="10" stroke-width="0.5"/><polygon points="899.08 169.92 867.76 188.42 868.27 224.8 899.08 169.92" fill="none" stroke="#414042" stroke-miterlimit="10" stroke-width="0.5"/><polygon points="836.01 170 867.6 188.05 898.95 169.6 836.01 170" fill="none" stroke="#414042" stroke-miterlimit="10" stroke-width="0.5"/><polygon points="933.26 225.2 901.79 206.95 870.32 225.2 933.26 225.2" fill="none" stroke="#414042" stroke-miterlimit="10" stroke-width="0.5"/><polygon points="901.94 170.16 901.93 206.54 933.5 224.62 901.94 170.16" fill="none" stroke="#414042" stroke-miterlimit="10" stroke-width="0.5"/><polygon points="869.91 224.49 901.52 206.49 901.6 170.12 869.91 224.49" fill="none" stroke="#414042" stroke-miterlimit="10" stroke-width="0.5"/><polygon points="935.91 224.89 935.6 188.51 903.87 170.71 935.91 224.89" fill="none" stroke="#414042" stroke-miterlimit="10" stroke-width="0.5"/><polygon points="967.34 169.92 936.02 188.42 936.53 224.8 967.34 169.92" fill="none" stroke="#414042" stroke-miterlimit="10" stroke-width="0.5"/><polygon points="904.27 170 935.86 188.05 967.21 169.6 904.27 170" fill="none" stroke="#414042" stroke-miterlimit="10" stroke-width="0.5"/><polygon points="488.83 282 457.36 263.75 425.89 282 488.83 282" fill="none" stroke="#414042" stroke-miterlimit="10" stroke-width="0.5"/><polygon points="457.51 226.96 457.5 263.34 489.07 281.42 457.51 226.96" fill="none" stroke="#414042" stroke-miterlimit="10" stroke-width="0.5"/><polygon points="425.48 281.29 457.09 263.29 457.17 226.91 425.48 281.29" fill="none" stroke="#414042" stroke-miterlimit="10" stroke-width="0.5"/><polygon points="558.08 282 526.62 263.75 495.15 282 558.08 282" fill="none" stroke="#414042" stroke-miterlimit="10" stroke-width="0.5"/><polygon points="526.77 226.96 526.76 263.34 558.33 281.42 526.77 226.96" fill="none" stroke="#414042" stroke-miterlimit="10" stroke-width="0.5"/><polygon points="494.74 281.29 526.35 263.29 526.43 226.91 494.74 281.29" fill="none" stroke="#414042" stroke-miterlimit="10" stroke-width="0.5"/><polygon points="491.48 281.69 491.17 245.31 459.44 227.51 491.48 281.69" fill="none" stroke="#414042" stroke-miterlimit="10" stroke-width="0.5"/><polygon points="522.91 226.72 491.59 245.22 492.11 281.6 522.91 226.72" fill="none" stroke="#414042" stroke-miterlimit="10" stroke-width="0.5"/><polygon points="459.84 226.8 491.43 244.85 522.78 226.4 459.84 226.8" fill="none" stroke="#414042" stroke-miterlimit="10" stroke-width="0.5"/><polygon points="560.74 281.69 560.43 245.31 528.7 227.51 560.74 281.69" fill="none" stroke="#414042" stroke-miterlimit="10" stroke-width="0.5"/><polygon points="592.17 226.72 560.85 245.22 561.36 281.6 592.17 226.72" fill="none" stroke="#414042" stroke-miterlimit="10" stroke-width="0.5"/><polygon points="529.1 226.8 560.68 244.85 592.03 226.4 529.1 226.8" fill="none" stroke="#414042" stroke-miterlimit="10" stroke-width="0.5"/><polygon points="626.34 282 594.87 263.75 563.4 282 626.34 282" fill="none" stroke="#414042" stroke-miterlimit="10" stroke-width="0.5"/><polygon points="595.03 226.96 595.01 263.34 626.58 281.42 595.03 226.96" fill="none" stroke="#414042" stroke-miterlimit="10" stroke-width="0.5"/><polygon points="562.99 281.29 594.61 263.29 594.68 226.91 562.99 281.29" fill="none" stroke="#414042" stroke-miterlimit="10" stroke-width="0.5"/><polygon points="629 281.69 628.69 245.31 596.96 227.51 629 281.69" fill="none" stroke="#414042" stroke-miterlimit="10" stroke-width="0.5"/><polygon points="660.43 226.72 629.11 245.22 629.62 281.6 660.43 226.72" fill="none" stroke="#414042" stroke-miterlimit="10" stroke-width="0.5"/><polygon points="597.36 226.8 628.94 244.85 660.29 226.4 597.36 226.8" fill="none" stroke="#414042" stroke-miterlimit="10" stroke-width="0.5"/><polygon points="694.6 282 663.13 263.75 631.66 282 694.6 282" fill="none" stroke="#414042" stroke-miterlimit="10" stroke-width="0.5"/><polygon points="663.29 226.96 663.27 263.34 694.84 281.42 663.29 226.96" fill="none" stroke="#414042" stroke-miterlimit="10" stroke-width="0.5"/><polygon points="631.25 281.29 662.87 263.29 662.94 226.91 631.25 281.29" fill="none" stroke="#414042" stroke-miterlimit="10" stroke-width="0.5"/><polygon points="697.26 281.69 696.95 245.31 665.22 227.51 697.26 281.69" fill="none" stroke="#414042" stroke-miterlimit="10" stroke-width="0.5"/><polygon points="728.68 226.72 697.37 245.22 697.88 281.6 728.68 226.72" fill="none" stroke="#414042" stroke-miterlimit="10" stroke-width="0.5"/><polygon points="665.62 226.8 697.2 244.85 728.55 226.4 665.62 226.8" fill="none" stroke="#414042" stroke-miterlimit="10" stroke-width="0.5"/><polygon points="762.86 282 731.39 263.75 699.92 282 762.86 282" fill="none" stroke="#414042" stroke-miterlimit="10" stroke-width="0.5"/><polygon points="731.54 226.96 731.53 263.34 763.1 281.42 731.54 226.96" fill="none" stroke="#414042" stroke-miterlimit="10" stroke-width="0.5"/><polygon points="699.51 281.29 731.13 263.29 731.2 226.91 699.51 281.29" fill="none" stroke="#414042" stroke-miterlimit="10" stroke-width="0.5"/><polygon points="765.51 281.69 765.21 245.31 733.48 227.51 765.51 281.69" fill="none" stroke="#414042" stroke-miterlimit="10" stroke-width="0.5"/><polygon points="796.94 226.72 765.63 245.22 766.14 281.6 796.94 226.72" fill="none" stroke="#414042" stroke-miterlimit="10" stroke-width="0.5"/><polygon points="733.87 226.8 765.46 244.85 796.81 226.4 733.87 226.8" fill="none" stroke="#414042" stroke-miterlimit="10" stroke-width="0.5"/><polygon points="831.12 282 799.65 263.75 768.18 282 831.12 282" fill="none" stroke="#414042" stroke-miterlimit="10" stroke-width="0.5"/><polygon points="799.8 226.96 799.79 263.34 831.36 281.42 799.8 226.96" fill="none" stroke="#414042" stroke-miterlimit="10" stroke-width="0.5"/><polygon points="767.77 281.29 799.38 263.29 799.46 226.91 767.77 281.29" fill="none" stroke="#414042" stroke-miterlimit="10" stroke-width="0.5"/><polygon points="833.77 281.69 833.46 245.31 801.74 227.51 833.77 281.69" fill="none" stroke="#414042" stroke-miterlimit="10" stroke-width="0.5"/><polygon points="865.2 226.72 833.88 245.22 834.39 281.6 865.2 226.72" fill="none" stroke="#414042" stroke-miterlimit="10" stroke-width="0.5"/><polygon points="802.13 226.8 833.72 244.85 865.07 226.4 802.13 226.8" fill="none" stroke="#414042" stroke-miterlimit="10" stroke-width="0.5"/><polygon points="899.38 282 867.91 263.75 836.44 282 899.38 282" fill="none" stroke="#414042" stroke-miterlimit="10" stroke-width="0.5"/><polygon points="868.06 226.96 868.05 263.34 899.62 281.42 868.06 226.96" fill="none" stroke="#414042" stroke-miterlimit="10" stroke-width="0.5"/><polygon points="836.03 281.29 867.64 263.29 867.72 226.91 836.03 281.29" fill="none" stroke="#414042" stroke-miterlimit="10" stroke-width="0.5"/><polygon points="902.03 281.69 901.72 245.31 869.99 227.51 902.03 281.69" fill="none" stroke="#414042" stroke-miterlimit="10" stroke-width="0.5"/><polygon points="933.46 226.72 902.14 245.22 902.65 281.6 933.46 226.72" fill="none" stroke="#414042" stroke-miterlimit="10" stroke-width="0.5"/><polygon points="870.39 226.8 901.98 244.85 933.33 226.4 870.39 226.8" fill="none" stroke="#414042" stroke-miterlimit="10" stroke-width="0.5"/><rect width="988" height="468" fill="url(#linear-gradient)"/></g></g></svg>