<?xml version="1.0" encoding="iso-8859-1"?>
<!-- Generator: Adobe Illustrator 19.0.0, SVG Export Plug-In . SVG Version: 6.00 Build 0)  -->
<svg version="1.1" id="Layer_1" xmlns="http://www.w3.org/2000/svg" xmlns:xlink="http://www.w3.org/1999/xlink" x="0px" y="0px"
	 viewBox="0 0 305 305" style="enable-background:new 0 0 305 305;" xml:space="preserve">
<g id="XMLID_455_">
	<path id="XMLID_458_" d="M254.773,118.227c-29.076,0-47.951,22.781-54.153,30.267c-0.045,0.055-0.091,0.11-0.137,0.165
		c-0.04-0.049-0.08-0.097-0.119-0.145c-6.182-7.491-24.991-30.287-54.303-30.287c-19.289,0-34.163,9.72-44.242,28.899
		c-8.588-15.419-21.261-23.232-37.703-23.232c-13.762,0-21.114,3.656-25.234,6.855c0.822-5.127,2.112-13.014,3.859-23.262h55.846
		c1.381,0,2.5-1.119,2.5-2.5V82.321c0-1.381-1.119-2.5-2.5-2.5h-78.41c-1.215,0-2.254,0.873-2.463,2.07l-13.258,75.93
		c-0.127,0.727,0.074,1.474,0.549,2.039c0.476,0.565,1.176,0.892,1.914,0.892h25.379c0.917,0,1.76-0.502,2.197-1.308
		c0.051-0.094,5.258-9.396,19.016-9.396c14.606,0,22.248,11.411,22.248,22.684c0,12.016-9.515,25.454-22.248,25.454
		c-12.532,0-20.228-10.719-20.228-18.403c0-1.381-1.119-2.5-2.5-2.5H2.5c-1.381,0-2.5,1.119-2.5,2.5
		c0,4.918,1.923,15.876,9.129,25.755c6.536,8.961,19.541,19.642,44.381,19.642c28.598,0,43.368-16.391,48.603-26.428
		c5.636,9.817,20.028,26.428,43.947,26.428c29.243,0,46.779-20.657,53.382-28.433c0.371-0.438,0.763-0.899,1.116-1.306
		c0.475,0.492,1.026,1.079,1.544,1.63c7.22,7.688,26.398,28.109,52.67,28.109c31.44,0,50.227-27.307,50.227-53.707
		c0-13.186-4.34-26.202-11.907-35.712C283.965,124.29,270.714,118.227,254.773,118.227z M254.994,193.137
		c-13.944,0-29.453-16.033-34.087-21.199c4.634-5.166,20.143-21.199,34.087-21.199c18.277,0,18.807,20.982,18.807,21.203
		C273.801,172.154,273.272,193.137,254.994,193.137z M146.219,193.137c-18.278,0-18.808-20.982-18.808-21.198v-0.005h0.001
		c0-0.212,0.525-21.194,18.807-21.194c13.884,0,29.429,16.028,34.082,21.199C175.652,177.105,160.105,193.137,146.219,193.137z"/>
</g>
<g>
</g>
<g>
</g>
<g>
</g>
<g>
</g>
<g>
</g>
<g>
</g>
<g>
</g>
<g>
</g>
<g>
</g>
<g>
</g>
<g>
</g>
<g>
</g>
<g>
</g>
<g>
</g>
<g>
</g>
</svg>
