<?xml version="1.0" encoding="iso-8859-1"?>
<!-- Generator: Adobe Illustrator 19.0.0, SVG Export Plug-In . SVG Version: 6.00 Build 0)  -->
<svg version="1.1" id="Layer_1" xmlns="http://www.w3.org/2000/svg" xmlns:xlink="http://www.w3.org/1999/xlink" x="0px" y="0px"
	 viewBox="0 0 310 310" style="enable-background:new 0 0 310 310;" xml:space="preserve">
<g id="XMLID_238_">
	<path id="XMLID_239_" d="M253.319,178.119c-19.338,0-43.539,3.373-51.456,4.56c-32.769-34.22-42.092-53.671-44.189-58.857
		c2.842-7.302,12.73-35.041,14.135-70.667c0.693-17.837-3.075-31.165-11.202-39.614c-8.113-8.435-17.933-9.091-20.749-9.091
		c-9.874,0-26.438,4.993-26.438,38.429c0,29.011,13.526,59.795,17.265,67.749c-19.699,57.358-40.848,96.623-45.339,104.698
		C6.19,245.129,0,273.945,0,282.112c0,14.676,10.452,23.438,27.959,23.438c42.535,0,81.351-71.412,87.769-83.812
		c30.21-12.037,70.644-19.493,80.923-21.272c29.484,28.086,63.583,35.58,77.743,35.58c10.654,0,35.605,0,35.605-25.653
		C310,186.571,279.467,178.119,253.319,178.119z M251.269,194.96c22.975,0,29.047,7.598,29.047,11.615
		c0,2.521-0.957,10.746-13.272,10.746c-11.043,0-30.109-6.382-48.868-20.23C225.999,196.063,237.575,194.96,251.269,194.96z
		 M138.652,20.774c2.095,0,3.474,0.673,4.611,2.25c6.608,9.169,1.28,39.129-5.205,62.574c-6.26-20.103-10.958-50.949-4.348-61.801
		C135.002,21.679,136.479,20.774,138.652,20.774z M127.494,200.227c8.318-16.804,17.641-41.294,22.719-55.145
		c10.162,17.009,23.83,32.801,31.735,41.363C157.335,191.634,138.713,196.818,127.494,200.227z M16.523,284.354
		c-0.548-0.65-0.629-2.02-0.216-3.665c0.866-3.447,7.484-20.534,55.351-41.946c-6.854,10.796-17.569,26.222-29.34,37.746
		c-8.286,7.756-14.738,11.689-19.177,11.689C21.553,288.178,19.365,287.745,16.523,284.354z"/>
</g>
<g>
</g>
<g>
</g>
<g>
</g>
<g>
</g>
<g>
</g>
<g>
</g>
<g>
</g>
<g>
</g>
<g>
</g>
<g>
</g>
<g>
</g>
<g>
</g>
<g>
</g>
<g>
</g>
<g>
</g>
</svg>
