<?xml version="1.0" encoding="iso-8859-1"?>
<!-- Generator: Adobe Illustrator 19.0.0, SVG Export Plug-In . SVG Version: 6.00 Build 0)  -->
<svg version="1.1" id="Layer_1" xmlns="http://www.w3.org/2000/svg" xmlns:xlink="http://www.w3.org/1999/xlink" x="0px" y="0px"
	 viewBox="0 0 243.852 243.852" style="enable-background:new 0 0 243.852 243.852;" xml:space="preserve">
<g id="XMLID_309_">
	<path id="XMLID_311_" d="M45.213,211.003v-61.364c3.273,0.319,7.133,0.485,11.346,0.485c25.676,0,46.436-6.773,60.043-19.594
		c11.146-10.589,17.287-26.365,17.287-44.42c0-17.536-7.334-33.392-20.109-43.494c-12.559-10.045-31.014-14.929-56.42-14.929
		c-22.008,0-40.605,1.266-55.279,3.764C0.879,31.654,0,32.696,0,33.915v177.088c0,1.381,1.119,2.5,2.5,2.5h40.213
		C44.094,213.503,45.213,212.384,45.213,211.003z M45.213,113.339V64.405c2.455-0.471,7.066-1.094,14.275-1.094
		c18.551,0,29.19,8.698,29.19,23.863c0,16.776-12.105,26.793-32.385,26.793C51.428,113.967,47.963,113.775,45.213,113.339z"/>
	<path id="XMLID_334_" d="M206.76,129.02c-16.568-5.798-19.363-8.559-19.363-12.553c0-7.093,8.109-8.152,12.945-8.152
		c10.268,0,20.979,3.852,27.031,7.15c0.678,0.369,1.484,0.405,2.193,0.098c0.705-0.308,1.232-0.924,1.424-1.67l7.191-27.959
		c0.293-1.141-0.25-2.332-1.303-2.858c-7.465-3.732-21.332-7.721-37.869-7.721c-32.674,0-55.494,18.549-55.494,45.065
		c-0.221,12.937,6.317,30.649,38.725,41.558c15.742,5.248,17.465,7.975,17.465,12.542c0,2.082,0,8.418-14.809,8.418
		c-11.094,0-26.072-4.927-33.588-9.491c-0.682-0.413-1.516-0.478-2.252-0.174c-0.734,0.303-1.281,0.938-1.473,1.71l-7.189,29.028
		c-0.274,1.107,0.236,2.258,1.238,2.8c10.998,5.944,26.768,9.354,43.264,9.354c36.365,0,58.955-17.08,58.955-44.608
		C243.563,150.866,232.119,137.746,206.76,129.02z"/>
</g>
<g>
</g>
<g>
</g>
<g>
</g>
<g>
</g>
<g>
</g>
<g>
</g>
<g>
</g>
<g>
</g>
<g>
</g>
<g>
</g>
<g>
</g>
<g>
</g>
<g>
</g>
<g>
</g>
<g>
</g>
</svg>
