<?xml version="1.0" encoding="iso-8859-1"?>
<!-- Generator: Adobe Illustrator 19.0.0, SVG Export Plug-In . SVG Version: 6.00 Build 0)  -->
<svg version="1.1" id="Layer_1" xmlns="http://www.w3.org/2000/svg" xmlns:xlink="http://www.w3.org/1999/xlink" x="0px" y="0px"
	 viewBox="0 0 194.07 194.07" style="enable-background:new 0 0 194.07 194.07;" xml:space="preserve">
<g id="XMLID_245_">
	<path id="XMLID_307_" d="M119.016,47.872c1.381,0,2.5-1.119,2.5-2.5V12.087c0-1.381-1.119-2.5-2.5-2.5H9.299
		c-1.381,0-2.5,1.119-2.5,2.5V191.57c0,1.381,1.119,2.5,2.5,2.5h40.744c1.381,0,2.5-1.119,2.5-2.5v-69.667h61.943
		c1.381,0,2.5-1.119,2.5-2.5V86.383c0-1.381-1.119-2.5-2.5-2.5H52.543V47.872H119.016z"/>
	<path id="XMLID_308_" d="M141.793,2.5v189.07c0,1.381,1.119,2.5,2.5,2.5h40.479c1.381,0,2.5-1.119,2.5-2.5V2.5
		c0-1.381-1.119-2.5-2.5-2.5h-40.479C142.912,0,141.793,1.119,141.793,2.5z"/>
</g>
<g>
</g>
<g>
</g>
<g>
</g>
<g>
</g>
<g>
</g>
<g>
</g>
<g>
</g>
<g>
</g>
<g>
</g>
<g>
</g>
<g>
</g>
<g>
</g>
<g>
</g>
<g>
</g>
<g>
</g>
</svg>
