<?xml version="1.0" encoding="iso-8859-1"?>
<!-- Generator: Adobe Illustrator 19.0.0, SVG Export Plug-In . SVG Version: 6.00 Build 0)  -->
<svg version="1.1" id="Layer_1" xmlns="http://www.w3.org/2000/svg" xmlns:xlink="http://www.w3.org/1999/xlink" x="0px" y="0px"
	 viewBox="0 0 244.379 244.379" style="enable-background:new 0 0 244.379 244.379;" xml:space="preserve">
<g id="XMLID_351_">
	<path id="XMLID_352_" d="M132.025,76.12c0-15.983-8.326-29.587-22.845-37.332C96.3,31.18,81.595,28.35,54.962,28.35
		c-20.062,0-41.836,1.553-52.952,3.776C0.841,32.36,0,33.386,0,34.578v176.289c0,1.24,0.909,2.293,2.137,2.474
		c6.838,1.004,21.685,2.689,44.303,2.689c34.341,0,57.933-5.491,72.141-16.801c12.803-10.361,19.57-24.202,19.57-40.024
		c0-20.846-11.746-37.208-31.745-44.748C122.771,106.571,132.025,92.862,132.025,76.12z M45.212,134.81h11.347
		c12.691,0,33.983,2.962,33.983,22.797c0,20.3-20.124,23.331-32.119,23.331c-5.5,0-9.748,0-13.211-0.283V134.81z M56.027,100.781
		H45.212V63.65c3.021-0.374,7.59-0.741,14.811-0.741c11.979,0,26.259,3.17,26.259,18.271
		C86.281,93.454,74.972,100.781,56.027,100.781z"/>
	<path id="XMLID_443_" d="M199.188,97.161l-0.881-15.853c-0.073-1.325-1.169-2.361-2.496-2.361h-34.885
		c-0.684,0-1.338,0.28-1.809,0.775c-0.472,0.495-0.72,1.161-0.688,1.844c0.559,11.789,1.063,23.93,1.063,42.754v87.346
		c0,1.381,1.119,2.5,2.5,2.5h40.476c1.381,0,2.5-1.119,2.5-2.5v-66.041c0-3.101,0.267-6.143,0.744-8.535
		c2.469-11.599,11.907-18.524,25.25-18.524c4.26,0,7.549,0.492,10.469,1.024c0.732,0.133,1.48-0.065,2.05-0.54
		c0.569-0.475,0.898-1.178,0.898-1.92V79.05c0-1.208-0.864-2.244-2.053-2.459c-3.149-0.573-5.217-0.573-8.969-0.573
		C221.545,76.018,207.316,82.621,199.188,97.161z"/>
</g>
<g>
</g>
<g>
</g>
<g>
</g>
<g>
</g>
<g>
</g>
<g>
</g>
<g>
</g>
<g>
</g>
<g>
</g>
<g>
</g>
<g>
</g>
<g>
</g>
<g>
</g>
<g>
</g>
<g>
</g>
</svg>
