<?xml version="1.0" encoding="iso-8859-1"?>
<!-- Generator: Adobe Illustrator 19.0.0, SVG Export Plug-In . SVG Version: 6.00 Build 0)  -->
<svg version="1.1" id="Layer_1" xmlns="http://www.w3.org/2000/svg" xmlns:xlink="http://www.w3.org/1999/xlink" x="0px" y="0px"
	 viewBox="0 0 206.063 206.063" style="enable-background:new 0 0 206.063 206.063;" xml:space="preserve">
<g id="XMLID_444_">
	<path id="XMLID_445_" d="M2.5,198.602h40.742c1.381,0,2.5-1.119,2.5-2.5V16.618c0-1.381-1.119-2.5-2.5-2.5H2.5
		c-1.381,0-2.5,1.119-2.5,2.5v179.484C0,197.483,1.119,198.602,2.5,198.602z"/>
	<path id="XMLID_446_" d="M124.455,201.531c16.252,0,30.539-6.653,39.398-18.072l1.252,12.885c0.125,1.281,1.201,2.258,2.488,2.258
		h35.949c0.008,0,0.016,0,0.02,0c1.381,0,2.5-1.119,2.5-2.5c0-0.16-0.014-0.315-0.043-0.467c-0.52-8.764-1.039-23.926-1.039-38.413
		V7.031c0-1.381-1.119-2.5-2.5-2.5h-40.478c-1.381,0-2.5,1.119-2.5,2.5v64.292c-7.236-6.972-18.662-10.87-32.385-10.87
		c-15.5,0-30.029,6.029-40.912,16.978c-13.16,13.241-20.043,32.181-19.906,54.758C66.299,172.369,90.756,201.531,124.455,201.531z
		 M137.502,164.309c-15.541,0-25.195-12.817-25.195-33.45c0-15.922,6.67-34.516,25.463-34.516c11.904,0,19.23,8.971,21.234,17.898
		c0.244,1.972,0.498,4.748,0.498,6.763v17.043c0,3.568-0.293,6.158-0.977,8.66c-0.014,0.049-0.025,0.098-0.037,0.148
		C156.305,157.295,147.871,164.309,137.502,164.309z"/>
</g>
<g>
</g>
<g>
</g>
<g>
</g>
<g>
</g>
<g>
</g>
<g>
</g>
<g>
</g>
<g>
</g>
<g>
</g>
<g>
</g>
<g>
</g>
<g>
</g>
<g>
</g>
<g>
</g>
<g>
</g>
</svg>
